<?xml version="1.0" standalone="no"?>
<!DOCTYPE svg PUBLIC "-//W3C//DTD SVG 1.1//EN" "http://www.w3.org/Graphics/SVG/1.1/DTD/svg11.dtd" >
<svg xmlns="http://www.w3.org/2000/svg">
<metadata></metadata>
<defs>
<font id="Orator10BTRegular" horiz-adv-x="1233" >
<font-face units-per-em="2048" ascent="1638" descent="-410" />
<missing-glyph horiz-adv-x="500" />
<glyph horiz-adv-x="0" />
<glyph horiz-adv-x="2048" />
<glyph unicode="&#xd;" />
<glyph unicode=" " />
<glyph unicode="!" d="M502 123h229v-365h-229v365zM514 1493h205l-41 -1167h-123z" />
<glyph unicode="&#x22;" d="M281 705v737h223v-737h-223zM729 705v737h223v-737h-223z" />
<glyph unicode="#" d="M53 307l23 137h209l92 392h-266l16 137h281l124 549l144 -19l-127 -530h309l127 547l139 -17l-118 -530h174l-19 -137h-186l-92 -392h262l-17 -137h-276l-131 -567l-143 18l127 549h-302l-135 -567l-145 18l129 549h-199zM432 444h305l90 392h-307z" />
<glyph unicode="$" d="M158 219l110 82q115 -144 289 -184v477q-207 67 -296 155.5t-89 226.5t104.5 226.5t280.5 96.5v204l127 19v-228q215 -34 334 -188l-100 -94q-116 107 -234 133v-416q204 -58 299.5 -152.5t95.5 -244t-107.5 -252t-287.5 -117.5v-205l-127 -16v225q-245 39 -399 252z M342 981q0 -78 48 -125t167 -84v383q-105 -6 -160 -51t-55 -123zM684 115q99 3 166.5 64.5t67.5 146.5q0 168 -234 229v-440z" />
<glyph unicode="%" d="M164 -258l713 1624q-74 -39 -146 -39q-33 0 -73 8q14 -110 14 -164q0 -146 -66.5 -231.5t-181.5 -85.5t-179.5 87.5t-64.5 247t64.5 246.5t181.5 87q43 0 126 -33t150 -33q143 0 281 66h96l-778 -1780h-137zM322 1188q0 -197 103 -197t103 197q0 196 -102 196 q-54 0 -79 -47.5t-25 -148.5zM569 76q0 160 64.5 247t181 87t180.5 -87.5t64 -246.5t-64 -246.5t-180.5 -87.5t-181 87t-64.5 247zM711 76q0 -197 103.5 -197t103.5 197q0 196 -103.5 196t-103.5 -196z" />
<glyph unicode="&#x26;" d="M98 150q0 112 63.5 201t217.5 188l-105 143q-96 132 -96 269.5t105 236t268.5 98.5t269 -95.5t105.5 -252.5q0 -115 -72 -211t-254 -215l293 -399q56 99 82 288l151 -28q-24 -237 -137 -396l156 -219h-187l-84 113q-141 -129 -338 -129t-317.5 116.5t-120.5 291.5z M262 160q0 -112 81.5 -187t203.5 -75q140 0 244 96l-322 438q-110 -68 -158.5 -132t-48.5 -140zM344 954q0 -86 86 -206l86 -121q152 98 202 161t50 149.5t-64 146t-157 59.5t-148 -53.5t-55 -135.5z" />
<glyph unicode="'" d="M504 705v737h225v-737h-225z" />
<glyph unicode="(" d="M365 627q0 512 376 882h154q-194 -223 -279.5 -430.5t-85.5 -452t86 -453t279 -431.5h-154q-376 374 -376 885z" />
<glyph unicode=")" d="M236 -258q194 224 280 432.5t86 452t-86 451t-280 431.5h153q379 -375 379 -883.5t-379 -883.5h-153z" />
<glyph unicode="*" d="M217 1053v151l295 -16l-160 246l131 75l133 -260l136 260l129 -73l-158 -248l293 14v-151l-293 16l160 -248l-133 -76l-134 263l-135 -263l-129 74l160 250zM567 1121q0 -22 14 -35t34.5 -13t37.5 17.5t17 40.5t-15 37t-36 14t-36.5 -19.5t-15.5 -41.5z" />
<glyph unicode="+" d="M98 559v143h445v496h147v-496h443v-143h-443v-493h-147v493h-445z" />
<glyph unicode="," d="M203 -354q201 77 280.5 204.5t79.5 376.5h227q3 -23 3 -82q0 -298 -140 -459t-426 -192z" />
<glyph unicode="-" d="M219 395v142h795v-142h-795z" />
<glyph unicode="." d="M502 227h229v-469h-229v469z" />
<glyph unicode="/" d="M0 -469l1077 1978h156l-1086 -1978h-147z" />
<glyph unicode="0" d="M129 580v102q0 252 12.5 359t42.5 180q129 301 432 301q304 0 433 -301q30 -72 42.5 -179t12.5 -360v-102q0 -254 -12.5 -361t-42.5 -178q-126 -299 -433 -299q-309 0 -432 299q-30 72 -42.5 179.5t-12.5 359.5zM295 674q0 -410 29.5 -528t105 -183t186.5 -65 q179 0 250.5 146t71.5 589q0 416 -42 524q-81 211 -280 211q-171 0 -254 -156q-36 -71 -51.5 -190t-15.5 -348z" />
<glyph unicode="1" d="M168 -242l16 150h394v1427l-338 -92l-37 143l481 136l53 -66v-1548h377l-16 -150h-930z" />
<glyph unicode="2" d="M115 1053q63 243 189 357t336.5 114t342 -116t131.5 -304q0 -211 -337 -621l-23 -28q-272 -326 -426 -547h792l-16 -150h-965v150q138 199 455 594q23 28 67 82q287 354 287 491t-86 217t-225.5 80t-227 -81t-153.5 -271z" />
<glyph unicode="3" d="M90 1356l16 147h961l18 -147l-516 -492q229 -10 371.5 -146.5t142.5 -340.5q0 -271 -259 -453t-664 -182h-23l-16 149h63q335 0 535.5 136t200.5 356q0 154 -111 251t-289 97q-61 0 -201 -18l-24 86l571 557h-776z" />
<glyph unicode="4" d="M109 197l276 1325l143 -19l-239 -1159h540v868l160 19v-887h162l-18 -147h-144v-439l-160 -16v455h-720z" />
<glyph unicode="5" d="M158 -115h63q333 0 534 139t201 359q0 160 -106.5 250t-286 90t-362.5 -59v839h899l-43 -147h-697v-518q144 26 226 26q232 0 383 -139t151 -348q0 -272 -256 -453.5t-661 -181.5h-29z" />
<glyph unicode="6" d="M119 743q0 242 28.5 373.5t96.5 221.5q142 186 397 186q229 0 391 -154l-96 -106q-81 63 -145.5 88.5t-139.5 25.5q-201 0 -283.5 -116t-82.5 -412q0 -83 2 -131q188 153 386 153t318.5 -149.5t120.5 -419t-124 -415.5t-355 -146q-281 0 -397.5 218t-116.5 783zM295 485 q0 -306 80 -450t241.5 -144t246.5 110t85 303.5t-83.5 307t-233 113.5t-336.5 -150v-90z" />
<glyph unicode="7" d="M242 -242l743 1598h-735l18 147h949l-822 -1761z" />
<glyph unicode="8" d="M102 219q0 161 91 272.5t280 182.5q-309 140 -309 416q0 182 132 308t319.5 126t320.5 -125t133 -301q0 -144 -75.5 -248t-233.5 -176q189 -72 279.5 -183t90.5 -272q0 -211 -143.5 -345t-370 -134t-370.5 134t-144 345zM268 196.5q0 -133.5 96.5 -220.5t251.5 -87 t252 87t97 220.5t-82.5 226t-266.5 169.5q-182 -76 -265 -169t-83 -226.5zM328 1098.5q0 -104.5 66.5 -183t221.5 -163.5q160 88 224.5 166.5t64.5 182.5t-88 188.5t-201 84.5t-200.5 -85.5t-87.5 -190z" />
<glyph unicode="9" d="M119 960.5q0 269.5 124 416.5t355 147q281 0 397.5 -217.5t116.5 -780.5q0 -240 -28.5 -374.5t-95.5 -223.5q-140 -186 -398 -186q-229 0 -391 152l96 108q79 -62 145 -88.5t140 -26.5q201 0 283.5 116t82.5 411q0 84 -2 130q-188 -153 -386 -153t-318.5 150 t-120.5 419.5zM283 959q0 -194 83.5 -307t231.5 -113t338 151v66q0 328 -78 473t-241 145t-248.5 -110.5t-85.5 -304.5z" />
<glyph unicode=":" d="M502 123h229v-365h-229v365zM502 473v365h229v-365h-229z" />
<glyph unicode=";" d="M186 -266q188 73 267.5 183.5t87.5 309.5h235v-12q0 -286 -138.5 -442t-424.5 -193zM547 473v365h229v-365h-229z" />
<glyph unicode="&#x3c;" d="M70 633q0 50 91 91q7 3 11 5l795 365q48 24 78.5 24t48.5 -17t18 -45q0 -54 -82 -89l-733 -334l733 -338q82 -37 82 -88q0 -30 -17.5 -48t-38.5 -18q-32 0 -89 25l-794 370q-4 2 -11 5q-92 42 -92 92z" />
<glyph unicode="=" d="M98 416v143h1035v-143h-1035zM98 702v142h1035v-142h-1035z" />
<glyph unicode="&#x3e;" d="M68 206q0 52 84 89l731 338l-731 334q-84 37 -84 88q0 29 18 46t40 17q36 0 86 -24l796 -365q4 -2 11 -5q91 -41 91 -91t-92 -92q-7 -3 -10 -4l-795 -371q-58 -25 -83.5 -25t-43.5 18.5t-18 46.5z" />
<glyph unicode="?" d="M117 1030q24 223 161.5 351t355 128t346 -117.5t128.5 -318.5q0 -118 -53 -212.5t-228 -246.5l-4 -3q-123 -108 -123 -246v-37h-170v67q0 92 26 153.5t68.5 98.5t90.5 79q229 198 229 353q0 130 -77.5 204.5t-222.5 74.5t-235.5 -82t-146.5 -272zM500 123h227v-365h-227 v365z" />
<glyph unicode="@" d="M131 161q0 194 87 320.5t228 126.5q79 0 181 -57l41 51l118 -16v-518q0 -110 17.5 -142t68 -32t71 69.5t20.5 304.5v371q0 160 -11 234q-42 270 -327 270q-148 0 -226.5 -93.5t-105.5 -304.5l-150 27q6 248 134.5 383t357.5 135q234 0 369 -153q63 -74 90.5 -171 t27.5 -315v-295q0 -211 -12 -311.5t-43 -164t-90 -101t-133 -37.5q-116 0 -191 111q-121 -113 -237.5 -113t-200.5 113.5t-84 307.5zM295 162q0 -271 170 -271q78 0 162 84v424q-91 62 -172 62q-160 0 -160 -299z" />
<glyph unicode="A" d="M86 -242l420 1735l199 16l434 -1751l-154 -16l-108 477h-529l-106 -477zM377 369h463l-230 946z" />
<glyph unicode="B" d="M57 -92h170v1435h-170l17 150h383q248 0 356 -52q215 -104 215 -370q0 -149 -67.5 -249t-190.5 -132q165 -52 252.5 -173t87.5 -273q0 -292 -231 -414q-73 -39 -172.5 -55.5t-300.5 -16.5h-332zM387 -92h117q228 0 332 78.5t104 252.5t-119 268.5t-344 94.5h-90v-694z M387 760h98q211 0 294 66t83 222t-85.5 225.5t-272.5 69.5h-117v-583z" />
<glyph unicode="C" d="M166 626q0 282 30 443.5t93.5 252t161 139t227.5 48.5t241.5 -78t163.5 -219l-145 -75q-83 219 -269.5 219t-261.5 -162.5t-75 -567.5t75.5 -567.5t251.5 -162.5q101 0 178 61.5t138 192.5l133 -74q-143 -334 -449 -334q-111 0 -208.5 48.5t-161 139t-93.5 252.5t-30 444 z" />
<glyph unicode="D" d="M57 -92h170v1435h-170l17 150h415q284 0 420 -113q103 -83 146 -242.5t43 -492t-36 -483.5t-115 -238.5t-202 -126.5t-307 -39h-364zM387 -92h117q223 0 330 129q54 63 76 176t22 389.5t-15.5 391.5t-59 188.5t-135.5 117t-218 43.5h-117v-1435z" />
<glyph unicode="E" d="M199 -242v1735h897l18 -150h-756v-583h576l-19 -150h-557v-702h816l-19 -150h-956z" />
<glyph unicode="F" d="M221 -258v1751h897l19 -150h-756v-583h678l-17 -150h-661v-852z" />
<glyph unicode="G" d="M139 625q0 286 29.5 446t92 250.5t160.5 139t222.5 48.5t234 -71t171.5 -201l-129 -82q-65 108 -132 154.5t-157 46.5q-177 0 -252.5 -162.5t-75.5 -573t77.5 -567.5t266.5 -157q141 0 260 86v563h-338l19 147h479v-794q-204 -156 -436 -156q-111 0 -208.5 48.5 t-161 137.5t-93 250t-29.5 447z" />
<glyph unicode="H" d="M178 -258v1751l160 16v-790h559v774l160 16v-1751l-160 -16v827h-559v-811z" />
<glyph unicode="I" d="M317 -242l17 150h203v1435h-220l17 150h581l-18 -150h-201v-1435h219l-18 -150h-580z" />
<glyph unicode="J" d="M109 176l124 84q61 -184 148 -272t211 -88t183 76.5t59 246.5v1270l159 16v-1292q0 -475 -393 -475q-358 0 -491 434z" />
<glyph unicode="K" d="M217 -258v1751l160 16v-845l35 2l624 843l123 -67l-602 -821l668 -863l-170 -16l-637 817h-41v-801z" />
<glyph unicode="L" d="M227 -242v1735l160 16v-1601h782l-18 -150h-924z" />
<glyph unicode="M" d="M100 -258v1751l248 16l277 -782l270 766l238 16v-1751l-160 -16v1548l-348 -923l-365 923v-1532z" />
<glyph unicode="N" d="M166 -258v1751l233 16l506 -1359v1343l160 16v-1751l-160 -16l-579 1532v-1516z" />
<glyph unicode="O" d="M123 627.5q0 283.5 29.5 443.5t93 250.5t161 139t209.5 48.5t210.5 -48.5t161.5 -139.5t92.5 -258t29.5 -492q0 -429 -119.5 -629t-374.5 -200q-111 0 -208 48t-161 139t-94 253t-30 445.5zM289 626q0 -406 75 -568t250.5 -162t252.5 161t77 564.5t-74 569t-252.5 165.5 t-253.5 -162t-75 -568z" />
<glyph unicode="P" d="M217 -258v1751h346q289 0 430.5 -121.5t141.5 -370.5q0 -136 -51 -243.5t-144 -169.5q-61 -42 -151 -60t-252 -18h-160v-752zM377 657h137q187 0 269.5 29t134 114.5t51.5 195.5t-43 190q-68 129 -218 149q-61 8 -206 8h-125v-686z" />
<glyph unicode="Q" d="M123 627.5q0 283.5 29.5 443.5t93 250.5t161 139t209.5 48.5t210.5 -48.5t161 -138t92.5 -253t30 -433.5t-24 -420.5t-78 -248.5l168 -209h-189l-78 90q-127 -106 -293 -106q-111 0 -208.5 48.5t-161 139t-93.5 252.5t-30 445.5zM289 626q0 -406 75 -568t252 -162 q118 0 193 77l-387 478h188l279 -347q55 145 55 536t-75 553.5t-252.5 162.5t-252.5 -162t-75 -568z" />
<glyph unicode="R" d="M219 -258v1751h297q235 0 335.5 -60.5t158 -173t57.5 -254t-66.5 -252.5t-187.5 -163l352 -832l-153 -16l-342 804q-77 -9 -164 -9l-127 1v-780zM379 688h123q215 0 307 74.5t92 243.5q0 87 -31.5 160t-79.5 111.5t-104 52t-199 13.5h-108v-655z" />
<glyph unicode="S" d="M102 217l140 57q101 -385 374 -385q141 0 235.5 88.5t94.5 217.5q0 95 -65.5 177.5t-214.5 172.5q-28 17 -147 81t-201 128q-175 137 -175 326.5t129.5 310t319.5 120.5t318.5 -113.5t172.5 -322.5l-141 -37q-35 153 -124.5 236.5t-217.5 83.5t-210.5 -75t-82.5 -189 q0 -115 80 -186.5t216 -145.5t181 -103q328 -199 328 -460q0 -194 -142.5 -325.5t-348.5 -131.5t-338.5 123t-180.5 352z" />
<glyph unicode="T" d="M96 1343l17 150h1024l-17 -150h-424v-1585l-161 -16v1601h-439z" />
<glyph unicode="U" d="M180 252v1241l160 16v-1288q0 -174 65 -250.5t211 -76.5t210.5 76t64.5 251v1272l160 16v-1257q0 -270 -103 -390t-332 -120t-332.5 120t-103.5 390z" />
<glyph unicode="V" d="M55 1493l154 16l401 -1362l414 1362l154 -16l-541 -1735h-68z" />
<glyph unicode="W" d="M76 1493l149 16l133 -1257l258 840l265 -840l127 1257l149 -16l-184 -1735h-82l-275 881l-272 -881h-82z" />
<glyph unicode="X" d="M94 -242l445 908l-404 827l150 16l336 -678l329 678l154 -16l-404 -829l443 -906l-148 -16l-374 762l-373 -762z" />
<glyph unicode="Y" d="M80 1493l151 16l385 -823l388 823l147 -16l-455 -977v-758l-159 -16v768z" />
<glyph unicode="Z" d="M98 -199l826 1542h-789l17 150h993v-59l-813 -1526h813l-17 -150h-1013z" />
<glyph unicode="[" d="M477 -242v1735h371l16 -150h-227v-1435h227l-16 -150h-371z" />
<glyph unicode="\" d="M0 1509h156l1077 -1978h-148z" />
<glyph unicode="]" d="M319 -92h228v1435h-228l17 150h371v-1735h-371z" />
<glyph unicode="^" d="M260 964q0 25 12 43l279 353q18 24 64.5 24t68.5 -24l277 -353q12 -18 12 -38t-15.5 -34.5t-30.5 -14.5q-22 0 -32 10l-279 278l-278 -278q-10 -10 -28.5 -10t-34 14.5t-15.5 29.5z" />
<glyph unicode="_" d="M0 -840h1233v-104h-1233v104z" />
<glyph unicode="`" d="M315 1716h215l252 -420h-129z" />
<glyph unicode="a" d="M141 452.5q0 339.5 120.5 525t340.5 185.5q169 0 326 -123v105l159 16v-1403l-159 -16v135q-90 -75 -160 -106t-147 -31q-228 0 -354 186.5t-126 526zM299 438q0 -544 342 -544q68 0 131 26t156 98v863q-101 74 -168.5 102.5t-136.5 28.5q-324 0 -324 -574z" />
<glyph unicode="b" d="M162 -258v1751l160 16v-469q157 123 325 123q221 0 341 -185.5t120 -525.5t-126 -526t-353 -186q-78 0 -148 31t-159 106v-119zM322 18q94 -73 155.5 -98.5t128.5 -25.5q175 0 259.5 138t84.5 416t-83 421t-240 143q-70 0 -137.5 -28.5t-167.5 -102.5v-863z" />
<glyph unicode="c" d="M166 451q0 710 493 710q148 0 260.5 -74.5t170.5 -209.5l-129 -93q-61 121 -130.5 172.5t-171.5 51.5q-169 0 -250 -136t-81 -421t80.5 -420t250.5 -135q99 0 172 51t138 166l123 -78q-128 -293 -433 -293q-493 0 -493 709z" />
<glyph unicode="d" d="M141 452.5q0 339.5 120.5 525t340.5 185.5q169 0 326 -123v453l159 16v-1751l-159 -16v135q-90 -75 -160 -106t-147 -31q-228 0 -354 186.5t-126 526zM299 438q0 -544 342 -544q68 0 131 26t156 98v863q-101 74 -168.5 102.5t-136.5 28.5q-324 0 -324 -574z" />
<glyph unicode="e" d="M125 451q0 710 491 710q235 0 363.5 -168.5t128.5 -478.5l-2 -61h-821v-21q0 -276 84.5 -406t261.5 -130q115 0 190.5 52t145.5 181l129 -66q-64 -156 -178.5 -238.5t-268.5 -82.5q-269 0 -396.5 172t-127.5 537zM289 604h655q-12 194 -97 299t-231 105q-293 0 -327 -404 z" />
<glyph unicode="f" d="M252 997l16 148h228l-2 47q0 170 83.5 243.5t278.5 73.5q177 0 338 -57l-51 -141q-190 53 -294.5 53t-149 -41.5t-44.5 -140.5v-37h424l-16 -148h-408v-1239l-159 -16v1255h-244z" />
<glyph unicode="g" d="M131 585.5q0 277.5 121.5 428.5t343.5 151q162 0 322 -102v82l159 16v-1091q0 -265 -119 -388.5t-372 -123.5q-204 0 -410 114l70 135q160 -100 338 -100q338 0 338 316q0 4 -1.5 35t-2.5 57q-154 -113 -310 -113q-225 0 -351 153t-126 430.5zM291 573q0 -419 340 -419 q65 0 127.5 19.5t159.5 76.5v663q-100 58 -168 79.5t-140 21.5q-157 0 -238 -111.5t-81 -329.5z" />
<glyph unicode="h" d="M186 -258v1751l160 16v-528q194 186 381 186q150 0 244 -98q56 -58 79 -143t23 -262v-906l-158 -16v870q0 238 -52.5 321t-184.5 83q-83 0 -172 -54.5t-160 -150.5v-1053z" />
<glyph unicode="i" d="M334 -242l18 152h209v1083h-227l18 152h369v-1235h227l-18 -152h-596zM500 1400.5q0 69.5 33.5 108.5t91 39t92.5 -39.5t35 -108.5t-34 -109t-92.5 -40t-92 40t-33.5 109.5z" />
<glyph unicode="j" d="M209 -423l12 150q91 -16 129 -16q144 0 201 69t57 275v1090l160 16v-1169q0 -221 -100 -327.5t-306 -106.5q-73 0 -153 19zM551 1400.5q0 69.5 34 108.5t92 39t92 -39.5t34 -108.5t-34 -109t-92 -40t-92 40t-34 109.5z" />
<glyph unicode="k" d="M258 -258v1751l160 16v-911h45l491 563l113 -96l-477 -545l612 -710l-137 -68l-602 696h-45v-680z" />
<glyph unicode="l" d="M317 -242l19 152h209v1431h-228l19 152h369v-1583h227l-19 -152h-596z" />
<glyph unicode="m" d="M49 -258v1403l160 16v-135q105 135 237 135q179 0 226 -164q107 166 268 166q124 0 184 -85t60 -261v-1059l-162 -16v1059q0 123 -28.5 166t-98.5 43q-95 0 -199 -133v-1119l-159 -16v1059q0 118 -29.5 163.5t-99.5 45.5q-104 0 -199 -133v-1119z" />
<glyph unicode="n" d="M186 -258v1403l160 16v-180q194 186 381 186q150 0 244 -98q56 -58 79 -143t23 -262v-906l-158 -16v870q0 238 -52.5 321t-184.5 83q-83 0 -172 -54.5t-160 -150.5v-1053z" />
<glyph unicode="o" d="M125 451q0 710 491.5 710t491.5 -709.5t-492 -709.5q-491 0 -491 709zM285 451q0 -285 80.5 -420t251 -135t252 136t81.5 419.5t-81.5 420t-251.5 136.5t-251 -136t-81 -421z" />
<glyph unicode="p" d="M164 -430v1575l160 16v-112q156 114 323 114q221 0 342 -171.5t121 -487.5t-126 -489t-353 -173q-78 0 -149.5 30t-157.5 99v-383zM324 109q96 -67 157 -90t127 -23q174 0 258 125.5t84 377t-82 380.5t-239 129q-70 0 -138.5 -26.5t-166.5 -92.5v-780z" />
<glyph unicode="q" d="M131 504q0 315 121.5 487t343.5 172q161 0 322 -114v96l159 16v-1573l-159 -18v401q-89 -71 -158.5 -100t-147.5 -29q-228 0 -354.5 173.5t-126.5 488.5zM291 489q0 -493 342 -493q66 0 126 22.5t159 90.5v780q-98 66 -167 92.5t-139 26.5q-321 0 -321 -519z" />
<glyph unicode="r" d="M322 -258v1403l159 16v-237q109 129 198 186t170 57q151 0 292 -102l-64 -143q-145 94 -234 94t-173.5 -62.5t-188.5 -199.5v-996z" />
<glyph unicode="s" d="M141 141l150 41q23 -139 108 -210.5t218.5 -71.5t204.5 61.5t71 164t-61.5 161.5t-260.5 124.5t-288.5 158t-89.5 240t116 249.5t285.5 102t283.5 -91.5t158 -256.5l-143 -53q-85 252 -305 252q-106 0 -171 -53t-65 -125q0 -139 119 -211q39 -24 151.5 -62t176.5 -67 q131 -61 191.5 -146.5t60.5 -212.5q0 -171 -119.5 -279t-315.5 -108q-396 0 -475 393z" />
<glyph unicode="t" d="M207 993l18 152h224v280l159 17v-297h449l-17 -152h-432v-866q0 -111 55.5 -174.5t152 -63.5t188.5 66l79 -117q-116 -98 -286 -98q-348 0 -348 432v821h-242z" />
<glyph unicode="u" d="M186 242v903l160 18v-872q0 -239 52 -320.5t184 -81.5q83 0 174 55.5t159 149.5v1051l158 18v-1403l-158 -18v182q-194 -186 -383 -186q-151 0 -243 96q-56 60 -79.5 145t-23.5 263z" />
<glyph unicode="v" d="M88 1145l150 16l393 -1071l370 1071l144 -16l-481 -1387h-58z" />
<glyph unicode="w" d="M76 1145l155 16l117 -987l268 762l275 -762l115 987l151 -16l-203 -1387h-63l-275 836l-276 -836h-61z" />
<glyph unicode="x" d="M82 -242l446 699l-440 688l160 16l368 -571l367 571l156 -16l-439 -684l451 -703l-162 -16l-375 586l-374 -586z" />
<glyph unicode="y" d="M135 1145l146 16l368 -1100l350 1100l140 -16l-391 -1237q-111 -350 -363 -350q-119 0 -188 57l82 111q53 -19 81 -19q148 0 209 150z" />
<glyph unicode="z" d="M162 -205l694 1202h-631l19 148h831l17 -35l-693 -1202h672l-16 -150h-877z" />
<glyph unicode="{" d="M414 397v211q97 23 131.5 67t34.5 204v299q0 249 66 343.5t233 94.5h28v-147q-107 -4 -138.5 -27.5t-31.5 -126.5v-383q0 -207 -35.5 -289t-123.5 -141q86 -65 122.5 -150.5t36.5 -273.5v-387q0 -105 32 -128.5t138 -25.5v-147h-28q-166 0 -232.5 94.5t-66.5 343.5v299 q0 159 -34.5 203t-131.5 67z" />
<glyph unicode="|" d="M555 -483v2048h121v-2048h-121z" />
<glyph unicode="}" d="M346 -463q107 2 138.5 25.5t31.5 128.5v381q0 207 36 290t124 142q-87 66 -123.5 151t-36.5 273v387q0 103 -32 127t-138 27v147h29q165 0 232 -94.5t67 -343.5v-287q0 -171 34 -215.5t132 -67.5v-211q-98 -23 -132 -67.5t-34 -214.5v-287q0 -248 -67 -343t-232 -95h-29 v147z" />
<glyph unicode="~" d="M133 582.5q0 58.5 88 112t174 53.5t224.5 -43t205 -43t139 36.5t87.5 36.5q49 0 49 -58t-88.5 -111.5t-173.5 -53.5t-223.5 43t-205.5 43t-140 -37t-87 -37q-49 0 -49 58.5z" />
<glyph unicode="&#xa0;" />
<glyph unicode="&#xa1;" d="M502 1128v365h229v-365h-229zM514 -242l41 1168h125l39 -1168h-205z" />
<glyph unicode="&#xa2;" d="M160 620.5q0 209.5 110.5 350.5t298.5 166v366l125 19v-385q231 -23 353 -209l-119 -97q-106 162 -295 162q-135 0 -220 -100.5t-85 -263t85 -259t241.5 -96.5t283.5 152l113 -94q-147 -181 -357 -209v-365l-125 -16v381q-189 25 -299 156.5t-110 341z" />
<glyph unicode="&#xa3;" d="M82 -109q144 112 210 239t66 292q0 61 -18 203h-205l17 147h167q-24 200 -24 293q0 216 105 336.5t282 120.5t272 -93.5t95 -259.5h-154q-37 199 -213 199q-225 0 -225 -268q0 -75 24 -328h324l-17 -147h-280q14 -165 14 -248q0 -172 -141 -381q60 8 94 8q86 0 197.5 -51 t156.5 -51q83 0 121.5 63.5t38.5 202.5v25l150 -1q2 -22 2 -61q0 -192 -90.5 -292.5t-262.5 -100.5q-86 0 -206.5 58.5t-175.5 58.5q-99 0 -213 -97z" />
<glyph unicode="&#xa4;" d="M123 459l190 188q-80 111 -80 238t80 235l-190 191l72 71l190 -190q102 82 235.5 82t239.5 -82l189 190l71 -71l-190 -191q80 -108 80 -237.5t-80 -235.5l190 -188l-71 -72l-189 191q-103 -82 -238 -82t-237 82l-190 -191zM336 885q0 -119 83.5 -203t202.5 -84t204 84.5 t85 203.5t-84.5 203.5t-203.5 84.5t-203 -85t-84 -204z" />
<glyph unicode="&#xa5;" d="M80 1503l151 19l385 -836l388 836l147 -19l-197 -426h172v-125h-229l-149 -315h378v-125h-430v-754l-159 -16v770h-420v125h364l-147 315h-217v125h162z" />
<glyph unicode="&#xa6;" d="M555 -352v760h121v-760h-121zM555 674v758h121v-758h-121z" />
<glyph unicode="&#xa7;" d="M219 575q0 103 47 183.5t152 156.5q-144 128 -144 268t100.5 233t241.5 93q277 0 345 -249l-140 -58q-21 82 -73 127t-127.5 45t-129 -47t-53.5 -113t36 -116.5t130 -112.5l199 -129q213 -137 213 -336q0 -95 -55.5 -182.5t-151.5 -142.5q145 -127 145 -267.5 t-100.5 -234.5t-240.5 -94q-276 0 -345 254l138 57q47 -172 200 -172q78 0 131.5 50t53.5 115.5t-36 114t-130 109.5l-197 127q-209 135 -209 321zM377 604.5q0 -72.5 37.5 -127t140.5 -121.5l139 -88q71 36 114.5 103t43.5 137.5t-35.5 122.5t-144.5 123l-140 90 q-74 -41 -114.5 -104t-40.5 -135.5z" />
<glyph unicode="&#xa8;" d="M328 1372v227h192v-227h-192zM715 1372v227h190v-227h-190z" />
<glyph unicode="&#xa9;" d="M25 670q0 262 172 434q174 174 419 174q117 0 226 -45q226 -93 320 -320q46 -111 46 -228q0 -241 -176 -419q-170 -174 -416 -174q-176 0 -314.5 91.5t-207.5 221t-69 265.5zM123 686q0 -95 38.5 -186.5t108.5 -161.5q145 -145 346 -145q202 0 349 145q145 149 145 348 q0 205 -145 350q-146 144 -348.5 144t-348.5 -146q-69 -70 -107 -161.5t-38 -186.5zM268 676q0 161 99.5 270t248.5 109q73 0 152 -31q13 21 51 22t50 -24t12 -121v-67q0 -38 -14 -53t-48 -15q-50 0 -68 81q-11 48 -49 71.5t-88 23.5q-96 0 -151 -69.5t-55 -187.5 t58.5 -187.5t138 -69.5t151 43t78.5 43q27 0 43 -15.5t16 -41.5q0 -49 -89 -100.5t-192 -51.5q-147 0 -245.5 105t-98.5 266z" />
<glyph unicode="&#xaa;" d="M174 939q0 272 108.5 420t307.5 148q150 0 293 -98v80l147 16v-1118l-147 -18v108q-143 -108 -279 -108q-203 0 -316.5 149t-113.5 421zM242 131v125h749v-125h-749zM322 930q0 -424 305 -424q58 0 113 19.5t143 76.5v670q-158 100 -286.5 100t-201.5 -113t-73 -329z" />
<glyph unicode="&#xab;" d="M281 451l213 440h133l-181 -440l181 -439h-133zM608 451l213 440h133l-180 -440l180 -439h-133z" />
<glyph unicode="&#xac;" d="M100 837q0 32 22.5 52t55.5 20h897q58 0 58 -39v-440q0 -35 -21.5 -57.5t-53.5 -22.5t-54.5 23.5t-22.5 56.5v334h-803q-35 0 -56.5 20.5t-21.5 52.5z" />
<glyph unicode="&#xad;" d="M219 395v142h795v-142h-795z" />
<glyph unicode="&#xae;" d="M25 670q0 262 172 434q174 174 419 174q117 0 226 -45q226 -93 320 -320q46 -111 46 -228q0 -241 -176 -419q-170 -174 -416 -174q-176 0 -314.5 91.5t-207.5 221t-69 265.5zM123 686q0 -95 38.5 -186.5t108.5 -161.5q145 -145 346 -145q202 0 349 145q145 149 145 348 q0 205 -145 350q-146 144 -348.5 144t-348.5 -146q-69 -70 -107 -161.5t-38 -186.5zM319 418.5q0 28.5 17.5 40.5t64.5 12h15v455h-15q-48 0 -65 11.5t-17 41.5q0 55 56 55h190q147 0 217 -49.5t70 -153.5q0 -60 -33.5 -106t-91.5 -66q6 -5 25 -31l104 -157h8q70 0 70 -55.5 t-55 -55.5h-60q-22 0 -37.5 10.5t-33.5 41.5l-105 157q-33 50 -48.5 60t-43.5 10h-19v-168h19q76 0 76 -55q0 -30 -16.5 -43t-55.5 -13h-180q-26 0 -41 15t-15 43.5zM532 743h58q133 0 133 93q0 90 -131 90h-60v-183z" />
<glyph unicode="&#xaf;" d="M305 1409v152h623v-152h-623z" />
<glyph unicode="&#xb0;" d="M252 1160q0 153 105 257.5t261 104.5t259.5 -104.5t103.5 -258t-106 -259t-258 -105.5t-258.5 106t-106.5 259zM401 1158q0 -91 64 -154.5t153.5 -63.5t152.5 63t63 154.5t-61 153t-154.5 61.5t-155.5 -61.5t-62 -152.5z" />
<glyph unicode="&#xb1;" d="M158 29v143h919v-143h-919zM158 702v142h387v389h149v-389h383v-142h-383v-387h-149v387h-387z" />
<glyph unicode="&#xb2;" d="M182 1192q69 171 175 250.5t278 79.5t283.5 -80.5t111.5 -212.5q0 -164 -449 -612q-123 -123 -192 -193h649l-16 -135h-817v135q430 414 552 560.5t122 223.5t-69 123.5t-184 46.5t-188 -53.5t-141 -187.5z" />
<glyph unicode="&#xb3;" d="M172 1370l16 139h811l17 -139l-436 -309h6q188 0 309 -97t121 -243q0 -191 -218 -319t-565 -128h-20l-14 136q14 -2 45 -2q277 0 445.5 89t168.5 230q0 102 -91.5 165.5t-238.5 63.5q-71 0 -159 -12l-35 98l446 328h-608z" />
<glyph unicode="&#xb4;" d="M453 1296l252 420h215l-340 -420h-127z" />
<glyph unicode="&#xb5;" d="M68 -352q0 30 12 86l217 1052h-80q-61 0 -61 58q0 80 90 80h174q49 0 49 -31q0 -9 -2 -17l-117 -532q-14 -72 -14 -92q0 -133 160 -133q122 0 222.5 78t123.5 192l94 465q8 44 25.5 57t62.5 13q68 0 68 -54q0 -12 -3 -19l-153 -714h63q60 0 60 -57q0 -80 -90 -80h-158 q-49 0 -49 31q0 6 4 18l20 72q-156 -144 -337 -144q-108 0 -168 62l-60 -334q-12 -67 -29 -91t-54 -24q-70 0 -70 58z" />
<glyph unicode="&#xb6;" d="M174 1005q0 204 109.5 346t281.5 142h477v-137h-104v-1735h-164v1735h-108v-1735h-166v965l-27 -2q-136 0 -217.5 108.5t-81.5 312.5z" />
<glyph unicode="&#xb7;" d="M453 648q0 70 48 117.5t116.5 47.5t116.5 -48t48 -117t-47 -118t-117 -49t-117.5 48.5t-47.5 118.5z" />
<glyph unicode="&#xb8;" d="M360 -645q200 -43 295 -43q148 0 148 100q0 61 -38.5 89t-98.5 28t-92 -2l-1 231h86v-127h29q273 0 273 -213q0 -219 -299 -219q-114 0 -302 51v105z" />
<glyph unicode="&#xb9;" d="M240 289l16 135h322v936l-271 -60l-37 127l408 95l49 -45v-1053h320l-17 -135h-790z" />
<glyph unicode="&#xba;" d="M174 938q0 567 442.5 567t442.5 -567t-442.5 -567t-442.5 567zM242 131v125h749v-125h-749zM324 938q0 -218 72 -323t221 -105t220.5 104.5t71.5 323t-72 323.5t-220.5 105t-220.5 -105t-72 -323z" />
<glyph unicode="&#xbb;" d="M281 12l180 439l-180 440h135l211 -440l-211 -439h-135zM608 12l183 439l-183 440h135l211 -440l-211 -439h-135z" />
<glyph unicode="&#xbc;" d="M0 176l1184 486l49 -132l-1184 -485zM96 553l19 129h274v686l-229 -45l-43 119l368 80l50 -47v-793h266l-17 -129h-688zM344 -592l209 742l135 -19l-166 -594h334v445l148 16v-461h114l-18 -129h-96v-215l-148 -12v227h-512z" />
<glyph unicode="&#xbd;" d="M0 176l1184 486l49 -132l-1184 -485zM96 553l19 129h274v686l-229 -45l-43 119l368 80l50 -47v-793h266l-17 -129h-688zM350 -143q53 154 146.5 223.5t251.5 69.5t253 -67.5t95 -185.5t-280 -371q-146 -132 -230 -216h518l-19 -129h-704v114q126 131 345.5 333.5 t219.5 261.5t-56 93.5t-148 34.5t-150.5 -41t-106.5 -141z" />
<glyph unicode="&#xbe;" d="M0 176l1184 486l49 -132l-1184 -485zM162 1393l16 129h701l18 -119l-313 -219q137 -14 223 -91t86 -184q0 -152 -186 -253t-484 -101h-22l-21 129h56q232 0 368.5 62t136.5 163q0 74 -70.5 117t-162.5 43t-174 -10l-35 82l350 252h-487zM344 -592l209 742l135 -19 l-166 -594h334v445l148 16v-461h114l-18 -129h-96v-215l-148 -12v227h-512z" />
<glyph unicode="&#xbf;" d="M139 178q0 114 50.5 205.5t232.5 253.5q127 102 127 250v37h170q2 -38 2 -97q0 -135 -109 -233q-24 -22 -70 -61q-237 -204 -237 -361q0 -130 78 -204t223 -74t235.5 82t145.5 274l146 -29q-26 -223 -164 -351t-355 -128t-346 117.5t-129 318.5zM522 1128v365h228v-365 h-228z" />
<glyph unicode="&#xc0;" d="M86 -242l420 1735l199 16l434 -1751l-154 -16l-108 477h-529l-106 -477zM315 2064h215l252 -420h-129zM377 369h463l-230 946z" />
<glyph unicode="&#xc1;" d="M86 -242l420 1735l199 16l434 -1751l-154 -16l-108 477h-529l-106 -477zM377 369h463l-230 946zM453 1644l252 420h215l-340 -420h-127z" />
<glyph unicode="&#xc2;" d="M86 -242l420 1735l199 16l434 -1751l-154 -16l-108 477h-529l-106 -477zM272 1644l238 420h213l238 -420h-130l-215 291l-215 -291h-129zM377 369h463l-230 946z" />
<glyph unicode="&#xc3;" d="M86 -242l420 1735l199 16l434 -1751l-154 -16l-108 477h-529l-106 -477zM266 1714q56 223 238 223q45 0 71 -10l97 -33q36 -12 71 -12q87 0 117 84h107q-63 -232 -238 -232q-39 0 -82 13l-97 33q-28 10 -63 10q-80 0 -114 -76h-107zM377 369h463l-230 946z" />
<glyph unicode="&#xc4;" d="M86 -242l420 1735l199 16l434 -1751l-154 -16l-108 477h-529l-106 -477zM328 1720v227h192v-227h-192zM377 369h463l-230 946zM715 1720v227h190v-227h-190z" />
<glyph unicode="&#xc5;" d="M86 -242l420 1735l199 16l434 -1751l-154 -16l-108 477h-529l-106 -477zM319 1865.5q0 125.5 86 211.5t211 86t212 -86.5t87 -211t-86.5 -211.5t-211.5 -87t-211.5 86.5t-86.5 212zM377 369h463l-230 946zM446 1866q0 -72 50 -122t122.5 -50t121 49t48.5 121.5t-49 122 t-121 49.5t-122 -49t-50 -121z" />
<glyph unicode="&#xc6;" d="M23 -242l485 1735h604l14 -150h-395v-583h289l-16 -150h-273v-702h424l-18 -150h-568v461h-276l-127 -477zM334 369h235v946z" />
<glyph unicode="&#xc7;" d="M166 626q0 282 30 443.5t93.5 252t161 139t227.5 48.5t241.5 -78t163.5 -219l-145 -75q-83 219 -269.5 219t-261.5 -162.5t-75 -567.5t75.5 -567.5t251.5 -162.5q101 0 178 61.5t138 192.5l133 -74q-143 -334 -449 -334q-111 0 -208.5 48.5t-161 139t-93.5 252.5t-30 444 zM417 -645q200 -43 295 -43q148 0 148 100q0 61 -38.5 89t-98.5 28t-92 -2l-1 231h86v-127h29q273 0 273 -213q0 -219 -299 -219q-114 0 -302 51v105z" />
<glyph unicode="&#xc8;" d="M199 -242v1735h897l18 -150h-756v-583h576l-19 -150h-557v-702h816l-19 -150h-956zM362 2064h215l252 -420h-129z" />
<glyph unicode="&#xc9;" d="M199 -242v1735h897l18 -150h-756v-583h576l-19 -150h-557v-702h816l-19 -150h-956zM500 1644l252 420h215l-340 -420h-127z" />
<glyph unicode="&#xca;" d="M199 -242v1735h897l18 -150h-756v-583h576l-19 -150h-557v-702h816l-19 -150h-956zM319 1644l238 420h213l238 -420h-130l-215 291l-215 -291h-129z" />
<glyph unicode="&#xcb;" d="M199 -242v1735h897l18 -150h-756v-583h576l-19 -150h-557v-702h816l-19 -150h-956zM375 1720v227h192v-227h-192zM762 1720v227h190v-227h-190z" />
<glyph unicode="&#xcc;" d="M315 2064h215l252 -420h-129zM317 -242l17 150h203v1435h-220l17 150h581l-18 -150h-201v-1435h219l-18 -150h-580z" />
<glyph unicode="&#xcd;" d="M317 -242l17 150h203v1435h-220l17 150h581l-18 -150h-201v-1435h219l-18 -150h-580zM453 1644l252 420h215l-340 -420h-127z" />
<glyph unicode="&#xce;" d="M272 1644l238 420h213l238 -420h-130l-215 291l-215 -291h-129zM317 -242l17 150h203v1435h-220l17 150h581l-18 -150h-201v-1435h219l-18 -150h-580z" />
<glyph unicode="&#xcf;" d="M317 -242l17 150h203v1435h-220l17 150h581l-18 -150h-201v-1435h219l-18 -150h-580zM328 1720v227h192v-227h-192zM715 1720v227h190v-227h-190z" />
<glyph unicode="&#xd0;" d="M0 598v125h227v620h-170l17 150h415q284 0 420 -113q103 -83 146 -242.5t43 -492t-36 -483.5t-115 -238.5t-202 -126.5t-307 -39h-364l-17 150h170v690h-227zM387 -92h117q223 0 330 129q54 63 76 176t22 389.5t-15.5 391.5t-59 188.5t-135.5 117t-218 43.5h-117v-620 h326v-125h-326v-690z" />
<glyph unicode="&#xd1;" d="M166 -258v1751l233 16l506 -1359v1343l160 16v-1751l-160 -16l-579 1532v-1516zM266 1714q56 223 238 223q45 0 71 -10l97 -33q36 -12 71 -12q87 0 117 84h107q-63 -232 -238 -232q-39 0 -82 13l-97 33q-28 10 -63 10q-80 0 -114 -76h-107z" />
<glyph unicode="&#xd2;" d="M123 627.5q0 283.5 29.5 443.5t93 250.5t161 139t209.5 48.5t210.5 -48.5t161.5 -139.5t92.5 -258t29.5 -492q0 -429 -119.5 -629t-374.5 -200q-111 0 -208 48t-161 139t-94 253t-30 445.5zM289 626q0 -406 75 -568t250.5 -162t252.5 161t77 564.5t-74 569t-252.5 165.5 t-253.5 -162t-75 -568zM315 2064h215l252 -420h-129z" />
<glyph unicode="&#xd3;" d="M123 627.5q0 283.5 29.5 443.5t93 250.5t161 139t209.5 48.5t210.5 -48.5t161.5 -139.5t92.5 -258t29.5 -492q0 -429 -119.5 -629t-374.5 -200q-111 0 -208 48t-161 139t-94 253t-30 445.5zM289 626q0 -406 75 -568t250.5 -162t252.5 161t77 564.5t-74 569t-252.5 165.5 t-253.5 -162t-75 -568zM453 1644l252 420h215l-340 -420h-127z" />
<glyph unicode="&#xd4;" d="M123 627.5q0 283.5 29.5 443.5t93 250.5t161 139t209.5 48.5t210.5 -48.5t161.5 -139.5t92.5 -258t29.5 -492q0 -429 -119.5 -629t-374.5 -200q-111 0 -208 48t-161 139t-94 253t-30 445.5zM272 1644l238 420h213l238 -420h-130l-215 291l-215 -291h-129zM289 626 q0 -406 75 -568t250.5 -162t252.5 161t77 564.5t-74 569t-252.5 165.5t-253.5 -162t-75 -568z" />
<glyph unicode="&#xd5;" d="M123 627.5q0 283.5 29.5 443.5t93 250.5t161 139t209.5 48.5t210.5 -48.5t161.5 -139.5t92.5 -258t29.5 -492q0 -429 -119.5 -629t-374.5 -200q-111 0 -208 48t-161 139t-94 253t-30 445.5zM266 1714q56 223 238 223q45 0 71 -10l97 -33q36 -12 71 -12q87 0 117 84h107 q-63 -232 -238 -232q-39 0 -82 13l-97 33q-28 10 -63 10q-80 0 -114 -76h-107zM289 626q0 -406 75 -568t250.5 -162t252.5 161t77 564.5t-74 569t-252.5 165.5t-253.5 -162t-75 -568z" />
<glyph unicode="&#xd6;" d="M123 627.5q0 283.5 29.5 443.5t93 250.5t161 139t209.5 48.5t210.5 -48.5t161.5 -139.5t92.5 -258t29.5 -492q0 -429 -119.5 -629t-374.5 -200q-111 0 -208 48t-161 139t-94 253t-30 445.5zM289 626q0 -406 75 -568t250.5 -162t252.5 161t77 564.5t-74 569t-252.5 165.5 t-253.5 -162t-75 -568zM328 1720v227h192v-227h-192zM715 1720v227h190v-227h-190z" />
<glyph unicode="&#xd7;" d="M217 972.5q0 30.5 22.5 52.5t44.5 22q37 0 64 -27l266 -266l256 256q28 26 57 26t50.5 -21.5t21.5 -43.5q0 -36 -26 -64l-256 -256l264 -266q27 -27 27 -56.5t-21 -51t-45 -21.5q-42 0 -65 25l-265 264l-256 -254q-27 -27 -57.5 -27t-50 19.5t-19.5 43.5q0 41 25 66 l254 256l-264 266q-27 27 -27 57.5z" />
<glyph unicode="&#xd8;" d="M-12 -258l196 315q-61 173 -61 611q0 476 127 659q59 85 156.5 133.5t209.5 48.5q223 0 365 -176l111 176h137l-187 -299q68 -179 68 -583q0 -278 -30 -442.5t-93.5 -255t-161 -139t-209.5 -48.5q-233 0 -372 190l-119 -190h-137zM289 594q0 -129 8.5 -226.5t9.5 -109.5 l574 913q-81 185 -262.5 185t-255.5 -163.5t-74 -598.5zM346 94q85 -198 266 -198t256.5 162.5t75.5 568.5q0 237 -22 391z" />
<glyph unicode="&#xd9;" d="M180 252v1241l160 16v-1288q0 -174 65 -250.5t211 -76.5t210.5 76t64.5 251v1272l160 16v-1257q0 -270 -103 -390t-332 -120t-332.5 120t-103.5 390zM315 2064h215l252 -420h-129z" />
<glyph unicode="&#xda;" d="M180 252v1241l160 16v-1288q0 -174 65 -250.5t211 -76.5t210.5 76t64.5 251v1272l160 16v-1257q0 -270 -103 -390t-332 -120t-332.5 120t-103.5 390zM453 1644l252 420h215l-340 -420h-127z" />
<glyph unicode="&#xdb;" d="M180 252v1241l160 16v-1288q0 -174 65 -250.5t211 -76.5t210.5 76t64.5 251v1272l160 16v-1257q0 -270 -103 -390t-332 -120t-332.5 120t-103.5 390zM272 1644l238 420h213l238 -420h-130l-215 291l-215 -291h-129z" />
<glyph unicode="&#xdc;" d="M180 252v1241l160 16v-1288q0 -174 65 -250.5t211 -76.5t210.5 76t64.5 251v1272l160 16v-1257q0 -270 -103 -390t-332 -120t-332.5 120t-103.5 390zM328 1720v227h192v-227h-192zM715 1720v227h190v-227h-190z" />
<glyph unicode="&#xdd;" d="M80 1493l151 16l385 -823l388 823l147 -16l-455 -977v-758l-159 -16v768zM453 1644l252 420h215l-340 -420h-127z" />
<glyph unicode="&#xde;" d="M217 -258v1751l160 16v-383h186q289 0 430.5 -121t141.5 -370q0 -137 -51 -245q-88 -186 -296 -228q-90 -19 -251 -19h-160v-385zM377 291h137q219 0 294.5 40t118 119.5t42.5 184t-43 184.5q-68 129 -218 149q-61 9 -206 9h-125v-686z" />
<glyph unicode="&#xdf;" d="M170 -258v1294q0 175 42.5 271t138.5 149t239 53q202 0 320 -109t118 -296q0 -284 -274 -381q354 -50 354 -479q0 -236 -109.5 -369t-302.5 -133q-120 0 -256 78l64 129q118 -58 201 -58q116 0 179.5 92.5t63.5 272.5t-89 270.5t-281 94.5v153q133 11 210.5 98t77.5 219 t-72.5 203.5t-204.5 71.5t-196.5 -69.5t-64.5 -215.5v-1323z" />
<glyph unicode="&#xe0;" d="M141 452.5q0 339.5 120.5 525t340.5 185.5q169 0 326 -123v105l159 16v-1403l-159 -16v135q-90 -75 -160 -106t-147 -31q-228 0 -354 186.5t-126 526zM299 438q0 -544 342 -544q68 0 131 26t156 98v863q-101 74 -168.5 102.5t-136.5 28.5q-324 0 -324 -574zM399 1716h215 l252 -420h-129z" />
<glyph unicode="&#xe1;" d="M141 452.5q0 339.5 120.5 525t340.5 185.5q169 0 326 -123v105l159 16v-1403l-159 -16v135q-90 -75 -160 -106t-147 -31q-228 0 -354 186.5t-126 526zM299 438q0 -544 342 -544q68 0 131 26t156 98v863q-101 74 -168.5 102.5t-136.5 28.5q-324 0 -324 -574zM537 1296 l252 420h215l-340 -420h-127z" />
<glyph unicode="&#xe2;" d="M141 452.5q0 339.5 120.5 525t340.5 185.5q169 0 326 -123v105l159 16v-1403l-159 -16v135q-90 -75 -160 -106t-147 -31q-228 0 -354 186.5t-126 526zM299 438q0 -544 342 -544q68 0 131 26t156 98v863q-101 74 -168.5 102.5t-136.5 28.5q-324 0 -324 -574zM356 1296 l238 420h213l238 -420h-130l-215 291l-215 -291h-129z" />
<glyph unicode="&#xe3;" d="M141 452.5q0 339.5 120.5 525t340.5 185.5q169 0 326 -123v105l159 16v-1403l-159 -16v135q-90 -75 -160 -106t-147 -31q-228 0 -354 186.5t-126 526zM299 438q0 -544 342 -544q68 0 131 26t156 98v863q-101 74 -168.5 102.5t-136.5 28.5q-324 0 -324 -574zM350 1366 q56 223 238 223q45 0 71 -10l97 -33q36 -12 71 -12q87 0 117 84h107q-63 -232 -238 -232q-39 0 -82 13l-97 33q-28 10 -63 10q-80 0 -114 -76h-107z" />
<glyph unicode="&#xe4;" d="M141 452.5q0 339.5 120.5 525t340.5 185.5q169 0 326 -123v105l159 16v-1403l-159 -16v135q-90 -75 -160 -106t-147 -31q-228 0 -354 186.5t-126 526zM299 438q0 -544 342 -544q68 0 131 26t156 98v863q-101 74 -168.5 102.5t-136.5 28.5q-324 0 -324 -574zM412 1372v227 h192v-227h-192zM799 1372v227h190v-227h-190z" />
<glyph unicode="&#xe5;" d="M141 452.5q0 339.5 120.5 525t340.5 185.5q169 0 326 -123v105l159 16v-1403l-159 -16v135q-90 -75 -160 -106t-147 -31q-228 0 -354 186.5t-126 526zM299 438q0 -544 342 -544q68 0 131 26t156 98v863q-101 74 -168.5 102.5t-136.5 28.5q-324 0 -324 -574zM391 1517 q0 125 87.5 211.5t212 86.5t211.5 -86.5t87 -211.5t-87 -211.5t-212.5 -86.5t-212 86.5t-86.5 211.5zM518 1517.5q0 -72.5 50 -123.5t122.5 -51t122 50.5t49.5 123t-50.5 123t-122 50.5t-121.5 -50t-50 -122.5z" />
<glyph unicode="&#xe6;" d="M16 452q0 346 80 528.5t230 182.5q126 0 194 -112v94l150 16v-119q75 121 194 121q342 0 342 -653v-57h-540v-27q0 -256 55 -394t156 -138q67 0 116.5 55t91.5 180l115 -66q-49 -170 -124.5 -246.5t-196.5 -76.5t-213 102v-84l-146 -16v98q-43 -54 -83 -77t-91 -23 q-159 0 -244.5 183t-85.5 529zM174 452q0 -558 178 -558q87 0 154 124v863q-92 129 -158 129q-174 0 -174 -558zM668 604h376q-14 406 -186 406q-166 0 -190 -406z" />
<glyph unicode="&#xe7;" d="M166 451q0 710 493 710q148 0 260.5 -74.5t170.5 -209.5l-129 -93q-61 121 -130.5 172.5t-171.5 51.5q-169 0 -250 -136t-81 -421t80.5 -420t250.5 -135q99 0 172 51t138 166l123 -78q-128 -293 -433 -293q-493 0 -493 709zM360 -645q200 -43 295 -43q148 0 148 100 q0 61 -38.5 89t-98.5 28t-92 -2l-1 231h86v-127h29q273 0 273 -213q0 -219 -299 -219q-114 0 -302 51v105z" />
<glyph unicode="&#xe8;" d="M125 451q0 710 491 710q235 0 363.5 -168.5t128.5 -478.5l-2 -61h-821v-21q0 -276 84.5 -406t261.5 -130q115 0 190.5 52t145.5 181l129 -66q-64 -156 -178.5 -238.5t-268.5 -82.5q-269 0 -396.5 172t-127.5 537zM289 604h655q-12 194 -97 299t-231 105q-293 0 -327 -404 zM315 1716h215l252 -420h-129z" />
<glyph unicode="&#xe9;" d="M125 451q0 710 491 710q235 0 363.5 -168.5t128.5 -478.5l-2 -61h-821v-21q0 -276 84.5 -406t261.5 -130q115 0 190.5 52t145.5 181l129 -66q-64 -156 -178.5 -238.5t-268.5 -82.5q-269 0 -396.5 172t-127.5 537zM289 604h655q-12 194 -97 299t-231 105q-293 0 -327 -404 zM453 1296l252 420h215l-340 -420h-127z" />
<glyph unicode="&#xea;" d="M125 451q0 710 491 710q235 0 363.5 -168.5t128.5 -478.5l-2 -61h-821v-21q0 -276 84.5 -406t261.5 -130q115 0 190.5 52t145.5 181l129 -66q-64 -156 -178.5 -238.5t-268.5 -82.5q-269 0 -396.5 172t-127.5 537zM272 1296l238 420h213l238 -420h-130l-215 291l-215 -291 h-129zM289 604h655q-12 194 -97 299t-231 105q-293 0 -327 -404z" />
<glyph unicode="&#xeb;" d="M125 451q0 710 491 710q235 0 363.5 -168.5t128.5 -478.5l-2 -61h-821v-21q0 -276 84.5 -406t261.5 -130q115 0 190.5 52t145.5 181l129 -66q-64 -156 -178.5 -238.5t-268.5 -82.5q-269 0 -396.5 172t-127.5 537zM289 604h655q-12 194 -97 299t-231 105q-293 0 -327 -404 zM328 1372v227h192v-227h-192zM715 1372v227h190v-227h-190z" />
<glyph unicode="&#xec;" d="M282 1716h215l252 -420h-129zM334 -242l18 152h209v1083h-227l18 152h369v-1235h227l-18 -152h-596z" />
<glyph unicode="&#xed;" d="M334 -242l18 152h209v1083h-227l18 152h369v-1235h227l-18 -152h-596zM420 1296l252 420h215l-340 -420h-127z" />
<glyph unicode="&#xee;" d="M239 1296l238 420h213l238 -420h-130l-215 291l-215 -291h-129zM334 -242l18 152h209v1083h-227l18 152h369v-1235h227l-18 -152h-596z" />
<glyph unicode="&#xef;" d="M295 1372v227h192v-227h-192zM334 -242l18 152h209v1083h-227l18 152h369v-1235h227l-18 -152h-596zM682 1372v227h190v-227h-190z" />
<glyph unicode="&#xf0;" d="M125 451q0 710 491 710q99 0 185 -37q-42 105 -121 170l-301 -102l-51 92l258 86q-67 48 -207 123h259q44 -23 97 -66l287 91l53 -88l-233 -87q123 -115 194.5 -352.5t71.5 -539.5q0 -709 -492 -709q-491 0 -491 709zM285 451q0 -285 80.5 -420t251 -135t252 136 t81.5 419.5t-81.5 420t-251.5 136.5t-251 -136t-81 -421z" />
<glyph unicode="&#xf1;" d="M186 -258v1403l160 16v-180q194 186 381 186q150 0 244 -98q56 -58 79 -143t23 -262v-906l-158 -16v870q0 238 -52.5 321t-184.5 83q-83 0 -172 -54.5t-160 -150.5v-1053zM266 1366q56 223 238 223q45 0 71 -10l97 -33q36 -12 71 -12q87 0 117 84h107q-63 -232 -238 -232 q-39 0 -82 13l-97 33q-28 10 -63 10q-80 0 -114 -76h-107z" />
<glyph unicode="&#xf2;" d="M125 451q0 710 491.5 710t491.5 -709.5t-492 -709.5q-491 0 -491 709zM285 451q0 -285 80.5 -420t251 -135t252 136t81.5 419.5t-81.5 420t-251.5 136.5t-251 -136t-81 -421zM315 1716h215l252 -420h-129z" />
<glyph unicode="&#xf3;" d="M125 451q0 710 491.5 710t491.5 -709.5t-492 -709.5q-491 0 -491 709zM285 451q0 -285 80.5 -420t251 -135t252 136t81.5 419.5t-81.5 420t-251.5 136.5t-251 -136t-81 -421zM453 1296l252 420h215l-340 -420h-127z" />
<glyph unicode="&#xf4;" d="M125 451q0 710 491.5 710t491.5 -709.5t-492 -709.5q-491 0 -491 709zM272 1296l238 420h213l238 -420h-130l-215 291l-215 -291h-129zM285 451q0 -285 80.5 -420t251 -135t252 136t81.5 419.5t-81.5 420t-251.5 136.5t-251 -136t-81 -421z" />
<glyph unicode="&#xf5;" d="M125 451q0 710 491.5 710t491.5 -709.5t-492 -709.5q-491 0 -491 709zM266 1366q56 223 238 223q45 0 71 -10l97 -33q36 -12 71 -12q87 0 117 84h107q-63 -232 -238 -232q-39 0 -82 13l-97 33q-28 10 -63 10q-80 0 -114 -76h-107zM285 451q0 -285 80.5 -420t251 -135 t252 136t81.5 419.5t-81.5 420t-251.5 136.5t-251 -136t-81 -421z" />
<glyph unicode="&#xf6;" d="M125 451q0 710 491.5 710t491.5 -709.5t-492 -709.5q-491 0 -491 709zM285 451q0 -285 80.5 -420t251 -135t252 136t81.5 419.5t-81.5 420t-251.5 136.5t-251 -136t-81 -421zM328 1372v227h192v-227h-192zM715 1372v227h190v-227h-190z" />
<glyph unicode="&#xf7;" d="M104 631q0 74 64 74h895q63 0 63 -74t-63 -74h-895q-64 0 -64 74zM506 315.5q0 46.5 32.5 79.5t78 33t78 -33t32.5 -79t-32 -78.5t-78.5 -32.5t-78.5 32t-32 78.5zM506 944.5q0 46.5 32.5 79.5t77.5 33t78 -33.5t33 -79t-32.5 -79.5t-78 -34t-78 33.5t-32.5 80z" />
<glyph unicode="&#xf8;" d="M-4 -258l201 260q-38 95 -55 195.5t-17 253.5q0 710 491 710q105 0 195.5 -39.5t149.5 -109.5l112 149h156l-193 -252q72 -156 72 -458q0 -709 -492 -709q-210 0 -348 154l-116 -154h-156zM285 475q0 -228 26 -319l549 723q-30 61 -94.5 95t-149.5 34q-331 0 -331 -533z M367 27q56 -72 112.5 -101.5t136.5 -29.5q171 0 252.5 135.5t81.5 419.5q0 181 -28 305z" />
<glyph unicode="&#xf9;" d="M186 242v903l160 18v-872q0 -239 52 -320.5t184 -81.5q83 0 174 55.5t159 149.5v1051l158 18v-1403l-158 -18v182q-194 -186 -383 -186q-151 0 -243 96q-56 60 -79.5 145t-23.5 263zM346 1716h215l252 -420h-129z" />
<glyph unicode="&#xfa;" d="M186 242v903l160 18v-872q0 -239 52 -320.5t184 -81.5q83 0 174 55.5t159 149.5v1051l158 18v-1403l-158 -18v182q-194 -186 -383 -186q-151 0 -243 96q-56 60 -79.5 145t-23.5 263zM484 1296l252 420h215l-340 -420h-127z" />
<glyph unicode="&#xfb;" d="M186 242v903l160 18v-872q0 -239 52 -320.5t184 -81.5q83 0 174 55.5t159 149.5v1051l158 18v-1403l-158 -18v182q-194 -186 -383 -186q-151 0 -243 96q-56 60 -79.5 145t-23.5 263zM303 1296l238 420h213l238 -420h-130l-215 291l-215 -291h-129z" />
<glyph unicode="&#xfc;" d="M186 242v903l160 18v-872q0 -239 52 -320.5t184 -81.5q83 0 174 55.5t159 149.5v1051l158 18v-1403l-158 -18v182q-194 -186 -383 -186q-151 0 -243 96q-56 60 -79.5 145t-23.5 263zM359 1372v227h192v-227h-192zM746 1372v227h190v-227h-190z" />
<glyph unicode="&#xfd;" d="M135 1145l146 16l368 -1100l350 1100l140 -16l-391 -1237q-111 -350 -363 -350q-119 0 -188 57l82 111q53 -19 81 -19q148 0 209 150zM453 1296l252 420h215l-340 -420h-127z" />
<glyph unicode="&#xfe;" d="M164 -430v1923l160 16v-460q156 114 323 114q221 0 342 -171.5t121 -487.5t-126 -489t-353 -173q-78 0 -149.5 30t-157.5 99v-383zM324 109q96 -67 157 -90t127 -23q174 0 258 125.5t84 377t-82 380.5t-239 129q-70 0 -138.5 -26.5t-166.5 -92.5v-780z" />
<glyph unicode="&#xff;" d="M135 1145l146 16l368 -1100l350 1100l140 -16l-391 -1237q-111 -350 -363 -350q-119 0 -188 57l82 111q53 -19 81 -19q148 0 209 150zM328 1372v227h192v-227h-192zM715 1372v227h190v-227h-190z" />
<glyph unicode="&#x152;" d="M96 627q0 309 36 478t106.5 249.5t146.5 115.5t144 35t128 -12h531l16 -150h-385v-583h277l-17 -150h-260v-702h418l-16 -150h-564q-62 -10 -110 -10q-237 0 -344 205.5t-107 673.5zM262 627.5q0 -406.5 72 -569t241 -162.5q34 0 82 8v1444q-50 8 -82 8 q-170 0 -241.5 -161t-71.5 -567.5z" />
<glyph unicode="&#x153;" d="M16 451q0 351 82.5 530.5t243.5 179.5q84 0 153 -57.5t109 -163.5q107 221 270 221t247.5 -164.5t84.5 -480.5v-63h-540v-27q0 -255 54.5 -392.5t156.5 -137.5q68 0 117 54t91 179l115 -66q-49 -170 -124.5 -245.5t-194.5 -75.5q-197 0 -281 217q-39 -103 -106.5 -160 t-151.5 -57q-326 0 -326 709zM180 451q0 -555 166 -555q84 0 124 135t40 420.5t-40 421t-124 135.5q-166 0 -166 -557zM668 604h376q-14 404 -186 404q-166 0 -190 -404z" />
<glyph unicode="&#x178;" d="M80 1493l151 16l385 -823l388 823l147 -16l-455 -977v-758l-159 -16v768zM328 1720v227h192v-227h-192zM715 1720v227h190v-227h-190z" />
<glyph unicode="&#x2c6;" d="M272 1296l238 420h213l238 -420h-130l-215 291l-215 -291h-129z" />
<glyph unicode="&#x2dc;" d="M266 1366q56 223 238 223q45 0 71 -10l97 -33q36 -12 71 -12q87 0 117 84h107q-63 -232 -238 -232q-39 0 -82 13l-97 33q-28 10 -63 10q-80 0 -114 -76h-107z" />
<glyph unicode="&#x2000;" horiz-adv-x="1081" />
<glyph unicode="&#x2001;" horiz-adv-x="2163" />
<glyph unicode="&#x2002;" horiz-adv-x="1081" />
<glyph unicode="&#x2003;" horiz-adv-x="2163" />
<glyph unicode="&#x2004;" horiz-adv-x="721" />
<glyph unicode="&#x2005;" horiz-adv-x="540" />
<glyph unicode="&#x2006;" horiz-adv-x="360" />
<glyph unicode="&#x2007;" horiz-adv-x="360" />
<glyph unicode="&#x2008;" horiz-adv-x="270" />
<glyph unicode="&#x2009;" horiz-adv-x="432" />
<glyph unicode="&#x200a;" horiz-adv-x="120" />
<glyph unicode="&#x2010;" d="M219 395v142h795v-142h-795z" />
<glyph unicode="&#x2011;" d="M219 395v142h795v-142h-795z" />
<glyph unicode="&#x2012;" d="M219 395v142h795v-142h-795z" />
<glyph unicode="&#x2013;" d="M0 414v104h1233v-104h-1233z" />
<glyph unicode="&#x2014;" d="M0 414v104h1233v-104h-1233z" />
<glyph unicode="&#x2018;" d="M397 817l244 692l217 -73l-248 -693z" />
<glyph unicode="&#x2019;" d="M397 817l244 692l217 -73l-248 -693z" />
<glyph unicode="&#x201a;" d="M340 -434l244 692l215 -74l-246 -692z" />
<glyph unicode="&#x201c;" d="M176 817l246 692l215 -73l-246 -693zM639 817l244 692l215 -73l-246 -693z" />
<glyph unicode="&#x201d;" d="M176 817l246 692l215 -73l-246 -693zM639 817l244 692l215 -73l-246 -693z" />
<glyph unicode="&#x201e;" d="M113 -434l243 692l217 -74l-245 -692zM575 -434l244 692l215 -74l-246 -692z" />
<glyph unicode="&#x2022;" d="M457 684q0 67 46.5 114.5t112.5 47.5t113 -48t47 -114t-47 -113t-113 -47t-112.5 46.5t-46.5 113.5z" />
<glyph unicode="&#x2026;" d="M104 -2h203v-240h-203v240zM516 -2h203v-240h-203v240zM926 -2h202v-240h-202v240z" />
<glyph unicode="&#x202f;" horiz-adv-x="432" />
<glyph unicode="&#x2039;" d="M442 451l213 440h136l-183 -440l183 -439h-136z" />
<glyph unicode="&#x203a;" d="M471 12l180 439l-180 440h133l213 -440l-213 -439h-133z" />
<glyph unicode="&#x205f;" horiz-adv-x="540" />
<glyph unicode="&#x2122;" d="M117 1053v10l4 145q0 25 14.5 39.5t38.5 14.5h338q51 0 53 -53l6 -146v-27q0 -22 -14.5 -36.5t-39.5 -14.5t-36.5 15t-13.5 58l-4 93h-66v-350h37q39 0 54.5 -12.5t15.5 -39.5t-14.5 -43t-36.5 -16h-220q-22 0 -36.5 15.5t-14.5 43t15.5 40t56.5 12.5h35v350h-66l-2 -93 q-2 -42 -14 -57.5t-40 -15.5t-39 15.5t-11 52.5zM602 746q0 49 51 55l10 352q-42 10 -42 53q0 24 13.5 39t35.5 15h63q55 0 68 -48l59 -219l62 219q12 48 65 48h66q22 0 35.5 -15t13.5 -39q0 -43 -45 -53l10 -352q53 -8 53 -56q0 -24 -14.5 -39.5t-36.5 -15.5h-108 q-66 0 -66 55.5t66 55.5h8v282l-51 -188q-9 -27 -21.5 -38t-36.5 -11q-44 0 -59 49l-51 188v-282h8q67 0 67 -55.5t-63 -55.5h-109q-23 0 -37 15t-14 41z" />
<glyph unicode="&#xe000;" horiz-adv-x="1160" d="M0 0v1160h1160v-1160h-1160z" />
</font>
</defs>
</svg>
