<?xml version="1.0" encoding="UTF-8" standalone="no"?>
<svg width="30px" height="30px" viewBox="0 0 30 30" version="1.1" xmlns="http://www.w3.org/2000/svg" xmlns:xlink="http://www.w3.org/1999/xlink">
    <!-- Generator: Sketch 3.8.3 (29802) - http://www.bohemiancoding.com/sketch -->
    <title>Group</title>
    <desc>Created with Sketch.</desc>
    <defs></defs>
    <g id="Page-1" stroke="none" stroke-width="1" fill="none" fill-rule="evenodd">
        <g id="Group" fill="#000000">
            <path d="M15,30 C6.72857143,30 0,23.2714286 0,15 C0,6.72857143 6.72857143,0 15,0 C23.2714286,0 30,6.72857143 30,15 C30,23.2714286 23.2714286,30 15,30 L15,30 Z M15,1.42959184 C7.51530612,1.42959184 1.42959184,7.51530612 1.42959184,15 C1.42959184,22.4846939 7.51836735,28.5704082 15,28.5704082 C22.4846939,28.5704082 28.5704082,22.4816327 28.5704082,15 C28.5704082,7.51530612 22.4846939,1.42959184 15,1.42959184 L15,1.42959184 Z" id="Shape"></path>
            <polygon id="Shape" points="10.7785714 8.50714286 21.8877551 15 10.7785714 21.1132653"></polygon>
        </g>
    </g>
</svg>